<svg xmlns="http://www.w3.org/2000/svg" viewBox="0 0 189.39 53.77"><defs><style>.cls-1{fill:#231815;}</style></defs><title>资源 4</title><g id="图层_2" data-name="图层 2"><g id="图层_1-2" data-name="图层 1"><path class="cls-1" d="M7.56,49.47A26.71,26.71,0,0,0,11.92,43l1.29-2.45S15.06,45.14,17,47.3c2.49,2.82,5.58,5.92,7,6.37V50.5c-8.15-6.4-8.52-15.64-9.15-19.69l-.26-1.73H26V25.89H14.7l0-18.18,10.82,0V4.48H7.06L7.4,2.71c.14-.79.31-1.63.49-2.5L4.55.23C3.48,5.58,2.79,8.71,2.43,9.78a10.17,10.17,0,0,1-2.1,3.45v4a11.05,11.05,0,0,0,3-2.59,23.93,23.93,0,0,0,2.81-6l.36-1,5.09.06V25.93L.1,25.9v3.18H11.51l-.18,1.66c-.62,5.76-2,10.28-4,13.43A17.71,17.71,0,0,1,0,50.47v3.22a23.49,23.49,0,0,0,3.49-1.27A16.67,16.67,0,0,0,7.56,49.47Z"/><path class="cls-1" d="M118.11,10.78l-.93-5H114l.85,4.85a10.08,10.08,0,0,0,2.42,5.22,9.36,9.36,0,0,0,5.34,2.79V15.44A5.54,5.54,0,0,1,118.11,10.78Z"/><path class="cls-1" d="M122.77.21H64.08V3.37h8.09l-1.33,7a6.2,6.2,0,0,1-4.59,5.21V18.8c4.34-.74,6.85-3.47,7.83-8.48L75.4,3.37H91.91V30.16H95.1V3.37h27.67Z"/><path d="M65.57,22c0,5.62,6.32,5.63,10.72,5.68,12.4.13,24.81,0,37.22.09,3.63,0,6.95.15,6.91-4.37,0-.22,1-.57,1.52-1,.29.65.85,1.29.85,1.81,0,7.62.26,7.75-.23,15.34-.27,4.12-5.93,14.15-30.85,14.15-22.93,0-27.41-11.46-27.48-16.15-.1-6.27,0-5,0-11.3a29.06,29.06,0,0,1,.31-3.46Zm5.28,8.66c-3.14-.06-3.62-.12-3.62,2.79,0,1.21.1.45.14,4.14,0,3.93,4.93,12.92,25,12.92,21.87,0,27.4-9.29,27.45-12.84s0-2.72,0-3.8c0-3.17-.66-2.71-4.53-2.84C107.87,30.81,78.34,30.81,70.85,30.68Z"/><path d="M25.29,52.53c4.94,0,5-5.56,5-9.44.12-10.93,0-21.87.08-32.8,0-3.21.13-6.13-3.85-6.09-.19,0-.5-.86-.84-1.34.57-.26,1.14-.75,1.6-.75,6.72,0,6.83-.24,13.52.2,3.63.24,12.47,5.22,12.47,27.19,0,20.21-10.1,24.15-14.24,24.22-5.52.08-4.42,0-10,0a24.18,24.18,0,0,1-3-.28Zm7.63-4.64c-.05,2.76-.11,3.19,2.46,3.19,1.06,0,.39-.09,3.65-.13,3.46,0,11.38-4.35,11.38-22,0-19.27-8.19-24.14-11.31-24.19s-2.4,0-3.36,0c-2.78,0-2.38.58-2.49,4C33,15.26,33,41.28,32.92,47.89Z"/><path class="cls-1" d="M186,19.7c-1.45-.7-2.5-2.15-3.21-4.47l-3.05-9.79a7.68,7.68,0,0,0-2.51-3.69C175.86.59,173.37,0,169.81,0h-28V3.29h28.67c2,0,3.39.31,4.26,1A6.62,6.62,0,0,1,177,7.78l2.5,7.93a19.28,19.28,0,0,0,1.58,3.86A6.94,6.94,0,0,0,186,23.32c1.42.17,3.36.23,3.36.23V20.37A8.38,8.38,0,0,1,186,19.7Z"/><path class="cls-1" d="M183.18,34.68c-.29-.18-1.34-.59-4.71-.59H145.38c-2.42,0-3.21-.15-3.71-.38A2.6,2.6,0,0,1,140,31.35a7.37,7.37,0,0,1,.43-2.07l1.28-4.38h39.09l0-3.09H136.27V24.9h2.5l-1.75,7c0,.09,0,.23,0,.41a12.1,12.1,0,0,0,.08,1.79,3.64,3.64,0,0,0,1.58,2.2c.45.36,1.42.77,3.57.77h35a6.4,6.4,0,0,1,4.66,1.46,5.89,5.89,0,0,1,1.59,4.35v3.38a4.25,4.25,0,0,1-1.37,3.52c-.71.54-1.81.76-3.81.76H140.46v3.22h41.15c3.59,0,5.12-1.41,5.12-4.72V41.62C186.73,38.39,185.57,36.12,183.18,34.68Z"/><path class="cls-1" d="M136.85,19.43a29.74,29.74,0,0,0,3-5,50.05,50.05,0,0,0,1.88-5.24h-3.26a30.7,30.7,0,0,1-2.74,6.46A12.62,12.62,0,0,1,130.87,20v3.56a18.44,18.44,0,0,0,2-.85,24.09,24.09,0,0,0,2.35-1.65A21.43,21.43,0,0,0,136.85,19.43Z"/></g></g></svg>